<?xml version="1.0" standalone="no"?>
<!DOCTYPE svg PUBLIC "-//W3C//DTD SVG 20010904//EN"
 "http://www.w3.org/TR/2001/REC-SVG-20010904/DTD/svg10.dtd">
<svg version="1.0" xmlns="http://www.w3.org/2000/svg"
 width="300.000000pt" height="300.000000pt" viewBox="0 0 300.000000 300.000000"
 preserveAspectRatio="xMidYMid meet">
<metadata>
Created by potrace 1.14, written by Peter Selinger 2001-2017
</metadata>
<g transform="translate(0.000000,300.000000) scale(0.100000,-0.100000)"
fill="#000000" stroke="none">
<path d="M737 2784 c5 -12 3 -15 -6 -9 -10 6 -11 3 -2 -13 14 -27 14 -35 -1
-26 -10 6 -10 4 0 -7 6 -7 12 -17 12 -22 0 -4 -6 -5 -12 -1 -10 6 -10 4 0 -7
6 -7 12 -19 12 -27 0 -8 -5 -10 -12 -6 -10 6 -10 4 0 -7 6 -7 12 -17 12 -22 0
-4 -6 -5 -12 -1 -10 6 -10 4 0 -7 6 -7 12 -17 12 -22 0 -4 -6 -5 -12 -1 -10 6
-10 4 0 -7 6 -7 12 -17 12 -22 0 -4 -6 -5 -12 -1 -10 6 -10 4 0 -7 6 -7 12
-17 12 -22 0 -4 -6 -5 -12 -1 -10 6 -10 4 0 -7 6 -7 12 -19 12 -27 0 -8 -5
-10 -12 -6 -10 6 -10 4 0 -7 6 -7 12 -17 12 -22 0 -4 -6 -5 -12 -1 -10 6 -10
4 0 -7 6 -7 12 -17 12 -22 0 -4 -6 -5 -12 -1 -10 6 -10 4 0 -7 6 -7 12 -17 12
-22 0 -4 -6 -5 -12 -1 -10 6 -10 4 0 -7 6 -7 12 -17 12 -22 0 -4 -6 -5 -12 -1
-10 6 -10 4 0 -7 6 -7 12 -17 12 -22 0 -4 -6 -5 -12 -1 -10 6 -10 4 0 -7 6 -7
12 -20 12 -28 0 -14 -1 -14 -10 -1 -6 9 -10 10 -10 3 0 -6 5 -15 10 -18 15 -9
13 -48 -2 -39 -10 6 -10 4 0 -7 6 -7 12 -17 12 -22 0 -4 -6 -5 -12 -1 -10 6
-10 4 0 -7 6 -7 12 -17 12 -22 0 -4 -6 -5 -12 -1 -10 6 -10 4 0 -7 6 -7 12
-17 12 -22 0 -4 -6 -5 -12 -1 -10 6 -10 4 0 -7 6 -7 12 -17 12 -22 0 -4 -6 -5
-12 -1 -10 6 -10 4 0 -7 6 -7 12 -17 12 -22 0 -4 -6 -5 -12 -1 -10 6 -10 4 0
-7 6 -7 12 -20 12 -28 0 -14 -1 -14 -10 -1 -6 9 -10 10 -10 3 0 -6 5 -15 10
-18 15 -9 12 -27 -2 -19 -10 6 -10 4 0 -7 15 -16 16 -33 1 -23 -8 5 -8 1 0
-14 6 -11 11 -23 11 -27 0 -3 -5 -3 -11 1 -8 5 -8 1 0 -14 14 -26 14 -35 0
-26 -8 5 -8 1 0 -14 13 -25 14 -35 2 -28 -10 7 -9 -20 2 -30 4 -4 7 -14 7 -23
0 -14 -2 -14 -10 -1 -6 9 -10 10 -10 3 0 -6 5 -15 10 -18 15 -9 13 -48 -2 -39
-10 6 -10 4 0 -7 6 -7 12 -17 12 -22 0 -4 -6 -5 -12 -1 -10 6 -10 4 0 -7 16
-17 16 -32 0 -23 -10 6 -10 4 0 -7 6 -7 12 -17 12 -22 0 -4 -6 -5 -12 -1 -10
6 -10 4 0 -7 6 -7 12 -17 12 -22 0 -4 -6 -5 -12 -1 -10 6 -10 4 0 -7 6 -7 12
-17 12 -22 0 -4 -6 -5 -12 -1 -10 6 -10 4 0 -7 6 -7 12 -20 12 -29 0 -13 -1
-13 -10 0 -6 9 -10 10 -10 3 0 -6 5 -15 10 -18 15 -9 12 -27 -2 -19 -10 6 -10
4 0 -7 15 -16 16 -33 1 -23 -8 5 -8 1 0 -14 14 -26 14 -35 0 -26 -8 5 -8 1 0
-14 6 -11 11 -23 11 -27 0 -3 -5 -3 -11 1 -8 5 -8 1 0 -14 13 -25 14 -35 2
-28 -10 7 -9 -20 2 -30 4 -4 7 -14 7 -23 0 -14 -2 -14 -10 -1 -6 9 -10 10 -10
3 0 -6 5 -15 10 -18 15 -9 13 -48 -2 -39 -10 6 -10 4 0 -7 16 -17 16 -32 0
-23 -10 6 -10 4 0 -7 6 -7 12 -17 12 -22 0 -4 -6 -5 -12 -1 -10 6 -10 4 0 -7
16 -17 16 -32 0 -23 -10 6 -10 4 0 -7 16 -17 16 -32 0 -23 -10 6 -10 4 0 -7
16 -17 16 -32 0 -23 -10 6 -10 4 0 -7 6 -7 12 -20 12 -28 0 -14 -1 -14 -10 -1
-6 9 -10 10 -10 3 0 -6 5 -15 10 -18 15 -9 13 -48 -2 -39 -10 6 -10 4 0 -7 6
-7 12 -17 12 -22 0 -4 -6 -5 -12 -1 -10 6 -10 4 0 -7 6 -7 12 -17 12 -22 0 -4
-6 -5 -12 -1 -10 6 -10 4 0 -7 6 -7 12 -17 12 -22 0 -4 -6 -5 -12 -1 -10 6
-10 4 0 -7 16 -17 16 -32 0 -23 -10 6 -10 4 0 -7 16 -17 16 -42 0 -33 -10 6
-10 4 0 -7 16 -17 16 -32 0 -23 -10 6 -10 4 0 -7 6 -7 12 -17 12 -22 0 -4 -6
-5 -12 -1 -10 6 -10 4 0 -7 6 -7 12 -17 12 -22 0 -4 -6 -5 -12 -1 -10 6 -10 4
0 -7 16 -17 16 -32 0 -23 -10 6 -10 4 0 -7 6 -7 12 -19 12 -27 0 -8 -5 -10
-12 -6 -10 6 -10 4 0 -7 6 -7 12 -17 12 -22 0 -4 -6 -5 -12 -1 -10 6 -10 4 0
-7 6 -7 12 -17 12 -22 0 -4 -6 -5 -12 -1 -10 6 -10 4 0 -7 16 -17 16 -32 0
-23 -10 6 -10 4 0 -7 16 -17 16 -32 0 -23 -10 6 -10 4 0 -7 6 -7 12 -19 12
-27 0 -8 -5 -10 -12 -6 -10 6 -10 4 0 -7 16 -17 16 -32 0 -23 -10 6 -10 4 0
-7 16 -17 16 -32 0 -23 -10 6 -10 4 0 -7 16 -17 16 -32 0 -23 -10 6 -10 4 0
-7 15 -16 16 -33 0 -23 -7 5 -8 3 -2 -7 13 -22 16 -51 3 -43 -8 5 -8 1 0 -14
6 -11 11 -23 11 -27 0 -3 -5 -3 -11 1 -8 5 -8 1 0 -14 14 -26 14 -35 0 -26 -8
5 -8 1 0 -14 13 -25 14 -35 2 -28 -10 6 -9 -9 3 -35 4 -10 6 -25 4 -35 -3 -18
15 -19 457 -20 458 -2 572 4 632 31 17 8 38 15 48 15 9 0 14 4 11 9 -3 5 10
12 29 15 20 4 33 11 30 17 -4 5 1 9 10 9 8 0 18 7 21 15 4 8 12 15 20 15 7 0
17 6 21 13 4 8 22 24 40 37 18 13 29 28 26 33 -4 6 -1 7 6 3 8 -5 14 0 18 13
3 11 9 18 14 15 5 -3 9 -1 9 4 0 5 8 18 18 30 40 49 52 67 52 79 0 7 4 13 9
13 5 0 13 10 17 23 4 12 10 24 15 27 8 6 16 37 18 70 1 12 3 12 10 2 5 -9 11
9 16 50 5 34 7 66 7 71 -1 4 2 7 8 7 12 0 14 227 1 232 -5 2 -12 28 -15 58 -4
30 -11 57 -17 61 -6 3 -10 9 -10 13 1 3 1 7 0 9 0 1 -3 13 -5 27 -2 13 -8 27
-13 30 -5 3 -12 16 -16 30 -4 13 -13 30 -19 37 -28 31 -36 43 -36 50 0 4 -12
19 -25 32 -14 12 -22 28 -18 34 3 5 1 7 -4 4 -6 -4 -14 0 -17 9 -3 8 -11 12
-17 8 -8 -5 -9 -3 -5 5 5 8 0 14 -14 18 -16 4 -18 8 -8 14 10 7 10 9 -2 9 -8
0 -21 4 -28 8 -15 10 -25 52 -11 52 5 0 14 11 21 25 6 13 14 22 18 20 5 -3 11
6 14 20 4 14 11 25 16 25 6 0 10 6 10 14 0 7 6 19 14 25 8 7 18 26 21 42 4 16
10 27 15 24 5 -3 12 15 15 40 4 25 11 42 16 39 5 -3 10 6 10 20 1 14 3 31 4
36 1 6 3 27 4 48 1 25 4 33 10 23 5 -8 9 30 10 100 1 65 -3 108 -7 101 -6 -9
-9 -2 -9 20 0 51 -14 122 -25 129 -5 3 -9 9 -8 13 3 14 -12 66 -20 66 -4 0
-11 12 -15 27 -3 15 -10 30 -14 33 -4 3 -17 22 -30 43 -12 20 -27 37 -32 37
-5 0 -9 7 -9 15 0 8 -9 20 -20 27 -11 7 -20 19 -20 27 0 8 -3 12 -6 8 -8 -7
-33 15 -28 25 2 4 -5 9 -16 13 -11 3 -20 10 -20 15 0 5 -10 12 -22 16 -12 3
-28 13 -36 20 -7 8 -23 14 -35 14 -17 0 -19 2 -8 9 10 6 1 11 -28 16 -22 4
-41 10 -41 15 0 4 -17 11 -37 15 -21 4 -44 12 -52 18 -10 9 -146 13 -483 15
-443 4 -468 3 -461 -14z m857 -343 c6 -5 26 -12 44 -16 17 -3 32 -11 32 -16 0
-5 7 -9 15 -9 18 0 115 -93 115 -110 0 -5 4 -10 10 -10 5 0 12 -11 16 -25 3
-14 10 -25 14 -25 10 0 29 -109 23 -130 -4 -13 -3 -13 5 -1 7 10 10 -3 9 -47
-1 -33 -4 -59 -8 -56 -4 2 -9 -19 -13 -46 -4 -28 -11 -50 -15 -50 -5 0 -11
-10 -15 -23 -3 -12 -19 -38 -36 -57 -16 -18 -30 -38 -30 -42 0 -5 -4 -6 -10
-3 -5 3 -10 2 -10 -4 0 -13 -82 -61 -104 -61 -9 0 -15 -4 -12 -9 10 -16 -66
-21 -306 -21 l-238 0 0 33 c0 18 -6 39 -12 46 -9 10 -9 12 -1 7 17 -9 17 253
0 273 -9 12 -9 13 1 7 9 -5 12 6 12 46 0 30 -6 60 -12 67 -10 11 -10 13 0 7 9
-5 12 10 12 66 0 45 -5 79 -12 87 -11 11 -10 12 0 6 11 -6 13 4 12 46 -1 30
-1 59 -1 66 1 7 21 13 49 15 98 6 455 -2 466 -11z m71 -1126 c22 -4 45 -7 52
-8 7 0 15 -7 17 -14 3 -8 10 -12 15 -8 5 3 12 1 16 -5 4 -6 11 -7 17 -4 6 4 8
2 4 -4 -3 -6 3 -13 14 -17 11 -3 20 -10 20 -15 0 -5 9 -12 20 -15 11 -3 20
-11 20 -16 0 -5 11 -22 25 -37 14 -15 28 -36 31 -47 4 -11 11 -23 16 -26 5 -3
11 -29 15 -57 3 -29 10 -52 14 -52 5 0 8 -25 8 -55 -1 -30 -5 -53 -9 -50 -4 2
-7 -9 -8 -26 -1 -44 -12 -89 -22 -89 -4 0 -11 -12 -14 -26 -4 -14 -20 -38 -36
-54 -16 -15 -26 -30 -24 -33 3 -3 -4 -8 -15 -12 -12 -3 -19 -10 -16 -15 3 -4
-7 -11 -20 -14 -14 -4 -23 -10 -21 -15 5 -8 -24 -17 -84 -28 -14 -2 -26 -8
-28 -14 -2 -5 -124 -9 -298 -9 l-294 0 -1 23 c0 12 0 64 1 115 1 64 -3 98 -12
110 -8 10 -9 13 -1 9 17 -10 17 252 0 272 -9 12 -9 13 1 7 9 -5 12 6 12 46 0
30 -6 60 -12 67 -10 11 -10 13 0 7 9 -5 12 8 12 53 0 48 3 60 17 63 32 6 528
0 568 -7z"/>
</g>
</svg>
